<?xml version="1.0" encoding="UTF-8"?>
<!DOCTYPE svg PUBLIC "-//W3C//DTD SVG 1.1//EN" "http://www.w3.org/Graphics/SVG/1.1/DTD/svg11.dtd">
<!-- Creator: CorelDRAW 2020 (64 Bit) -->
<svg xmlns="http://www.w3.org/2000/svg" xml:space="preserve" width="200px" height="200px" version="1.1" style="shape-rendering:geometricPrecision; text-rendering:geometricPrecision; image-rendering:optimizeQuality; fill-rule:evenodd; clip-rule:evenodd"
viewBox="0 0 200 200"
 xmlns:xlink="http://www.w3.org/1999/xlink"
 xmlns:xodm="http://www.corel.com/coreldraw/odm/2003">
 <defs>
  <style type="text/css">
   <![CDATA[
    .fil0 {fill:#B18F0E}
    .fil1 {fill:#FEFDFE}
   ]]>
  </style>
 </defs>
 <g id="Camada_x0020_1">
  <metadata id="CorelCorpID_0Corel-Layer"/>
  <g id="_2185282361088">
   <path class="fil0" d="M78.64 126.62c-11.28,0.68 -11.01,-4.17 -17,-7.89 0.16,4.2 15.93,29.5 23.2,36.43 1.73,1.66 8.95,8.41 11.66,8.99 2.38,-2.03 5.42,-6.65 7.68,-9.46 2.57,-3.18 4.99,-6.19 7.55,-9.47l15.14 -18.75c-1.92,0.04 -6.57,3.42 -9.38,4.53 -2.79,1.1 -9.23,2.75 -11.9,1.47 -1.08,-1.4 -0.56,-0.8 -0.63,-2.93 -0.04,-1.15 -0.06,-2.37 -0.09,-3.54 -0.06,-2.48 -0.01,-5.04 0.11,-7.52 0.97,-20.32 8.74,-39.08 15.83,-57.16 1.53,-3.9 8.83,-18.26 8.71,-20.85l-22.93 -4.6c-3.39,-0.91 -4.75,-2.17 -6.63,1.11 -11.51,20.1 -20.71,47.25 -21.61,71.02 -0.24,6.43 0.41,12.53 0.29,18.62z"/>
   <path class="fil1" d="M78.64 126.62c0.12,-6.09 -0.53,-12.19 -0.29,-18.62 0.9,-23.77 10.1,-50.92 21.61,-71.02 1.88,-3.28 3.24,-2.02 6.63,-1.11l22.93 4.6c0.12,2.59 -7.18,16.95 -8.71,20.85 -7.09,18.08 -14.86,36.84 -15.83,57.16 -0.12,2.48 -0.17,5.04 -0.11,7.52 0.03,1.17 0.05,2.39 0.09,3.54 0.07,2.13 -0.45,1.53 0.63,2.93 2.67,1.28 9.11,-0.37 11.9,-1.47 2.81,-1.11 7.46,-4.49 9.38,-4.53l-15.14 18.75c-2.56,3.28 -4.98,6.29 -7.55,9.47 -2.26,2.81 -5.3,7.43 -7.68,9.46 -2.71,-0.58 -9.93,-7.33 -11.66,-8.99 -7.27,-6.93 -23.04,-32.23 -23.2,-36.43 5.99,3.72 5.72,8.57 17,7.89zm60.86 -14.34c-6.89,3.22 -8.35,7.78 -26.54,14.71 -4.79,1.82 -3.74,-0.1 -3.61,-4.99 0.1,-3.4 0.42,-5.98 0.79,-9.26 0.68,-5.93 1.95,-11.71 3.41,-17.18 2.81,-10.52 6.57,-20.69 10.64,-30.36l12.91 -28.15 -38.34 -7.71c-17.48,33.14 -24.55,51.58 -25.41,91.12 -2.54,0.19 -3.53,-1.87 -5.35,-3.45l-4.54 -3.97c-3.31,-2.77 -6.11,-5.02 -9.46,-7.79 -1.73,0.61 -2.49,1.49 -3.48,2.75l9.26 18.22c9.09,17.76 19.64,35.01 37.72,44.87 1.61,-1.33 9.24,-11.82 11.17,-14.43l34.27 -40.62c-0.62,-1.73 -2.12,-3.14 -3.44,-3.76z"/>
  </g>
 </g>
</svg>
