<svg id="visual" viewBox="0 0 1280 150" width="1280" height="150" xmlns="http://www.w3.org/2000/svg" xmlns:xlink="http://www.w3.org/1999/xlink" version="1.1"><path d="M0 72L30.5 66.7C61 61.3 122 50.7 183 52.3C244 54 305 68 366 67.5C427 67 488 52 548.8 49.5C609.7 47 670.3 57 731.2 60C792 63 853 59 914 55.7C975 52.3 1036 49.7 1097 48.8C1158 48 1219 49 1249.5 49.5L1280 50L1280 151L1249.5 151C1219 151 1158 151 1097 151C1036 151 975 151 914 151C853 151 792 151 731.2 151C670.3 151 609.7 151 548.8 151C488 151 427 151 366 151C305 151 244 151 183 151C122 151 61 151 30.5 151L0 151Z" fill="#6b6b6b"></path><path d="M0 93L30.5 91.2C61 89.3 122 85.7 183 85.3C244 85 305 88 366 85C427 82 488 73 548.8 70.8C609.7 68.7 670.3 73.3 731.2 75.7C792 78 853 78 914 81.5C975 85 1036 92 1097 95.5C1158 99 1219 99 1249.5 99L1280 99L1280 151L1249.5 151C1219 151 1158 151 1097 151C1036 151 975 151 914 151C853 151 792 151 731.2 151C670.3 151 609.7 151 548.8 151C488 151 427 151 366 151C305 151 244 151 183 151C122 151 61 151 30.5 151L0 151Z" fill="#888888"></path><path d="M0 106L30.5 109.8C61 113.7 122 121.3 183 119.7C244 118 305 107 366 101.8C427 96.7 488 97.3 548.8 102.8C609.7 108.3 670.3 118.7 731.2 120.3C792 122 853 115 914 109.3C975 103.7 1036 99.3 1097 101.5C1158 103.7 1219 112.3 1249.5 116.7L1280 121L1280 151L1249.5 151C1219 151 1158 151 1097 151C1036 151 975 151 914 151C853 151 792 151 731.2 151C670.3 151 609.7 151 548.8 151C488 151 427 151 366 151C305 151 244 151 183 151C122 151 61 151 30.5 151L0 151Z" fill="#a7a7a7"></path></svg>