<svg id="visual" viewBox="0 0 500 150" width="500" height="150" xmlns="http://www.w3.org/2000/svg" xmlns:xlink="http://www.w3.org/1999/xlink" version="1.1"><path d="M0 72L11.8 66.7C23.7 61.3 47.3 50.7 71.2 52.3C95 54 119 68 142.8 67.5C166.7 67 190.3 52 214.2 49.5C238 47 262 57 285.8 60C309.7 63 333.3 59 357.2 55.7C381 52.3 405 49.7 428.8 48.8C452.7 48 476.3 49 488.2 49.5L500 50L500 151L488.2 151C476.3 151 452.7 151 428.8 151C405 151 381 151 357.2 151C333.3 151 309.7 151 285.8 151C262 151 238 151 214.2 151C190.3 151 166.7 151 142.8 151C119 151 95 151 71.2 151C47.3 151 23.7 151 11.8 151L0 151Z" fill="#6b6b6b"></path><path d="M0 93L11.8 91.2C23.7 89.3 47.3 85.7 71.2 85.3C95 85 119 88 142.8 85C166.7 82 190.3 73 214.2 70.8C238 68.7 262 73.3 285.8 75.7C309.7 78 333.3 78 357.2 81.5C381 85 405 92 428.8 95.5C452.7 99 476.3 99 488.2 99L500 99L500 151L488.2 151C476.3 151 452.7 151 428.8 151C405 151 381 151 357.2 151C333.3 151 309.7 151 285.8 151C262 151 238 151 214.2 151C190.3 151 166.7 151 142.8 151C119 151 95 151 71.2 151C47.3 151 23.7 151 11.8 151L0 151Z" fill="#888888"></path><path d="M0 106L11.8 109.8C23.7 113.7 47.3 121.3 71.2 119.7C95 118 119 107 142.8 101.8C166.7 96.7 190.3 97.3 214.2 102.8C238 108.3 262 118.7 285.8 120.3C309.7 122 333.3 115 357.2 109.3C381 103.7 405 99.3 428.8 101.5C452.7 103.7 476.3 112.3 488.2 116.7L500 121L500 151L488.2 151C476.3 151 452.7 151 428.8 151C405 151 381 151 357.2 151C333.3 151 309.7 151 285.8 151C262 151 238 151 214.2 151C190.3 151 166.7 151 142.8 151C119 151 95 151 71.2 151C47.3 151 23.7 151 11.8 151L0 151Z" fill="#a7a7a7"></path></svg>