<?xml version="1.0" encoding="UTF-8"?>
<!DOCTYPE svg PUBLIC "-//W3C//DTD SVG 1.1//EN" "http://www.w3.org/Graphics/SVG/1.1/DTD/svg11.dtd">
<!-- Creator: CorelDRAW 2020 (64 Bit) -->
<svg xmlns="http://www.w3.org/2000/svg" xml:space="preserve" width="1000px" height="1000px" version="1.1" style="shape-rendering:geometricPrecision; text-rendering:geometricPrecision; image-rendering:optimizeQuality; fill-rule:evenodd; clip-rule:evenodd"
viewBox="0 0 1000 1000"
 xmlns:xlink="http://www.w3.org/1999/xlink"
 xmlns:xodm="http://www.corel.com/coreldraw/odm/2003">
 <defs>
  <style type="text/css">
   <![CDATA[
    .fil0 {fill:white}
   ]]>
  </style>
 </defs>
 <g id="Camada_x0020_1">
  <metadata id="CorelCorpID_0Corel-Layer"/>
  <g id="_1679471312272">
   <path class="fil0" d="M550.41 551.16c0.48,-31.6 0.03,-63.52 0.06,-95.16 0,-10.54 -0.74,-91.84 0.36,-94.66l78.67 -0.1c22.06,0 55.85,-2.14 75.25,4 21.09,6.68 36.54,18.32 47.52,31.98 10.75,13.36 20.54,33.65 20.76,58.78 0.4,46.21 -20,81.81 -66.05,92.47 -17.41,4.03 -57.24,2.77 -76.98,2.77 -13.17,0 -26.33,0 -39.5,0 -12.95,0 -27.31,0.58 -40.09,-0.08zm0.22 -382.99c4.44,-0.58 70.54,-0.17 76.87,-0.17 24.67,0 49.37,-2.06 71.72,4.79 33.94,10.4 65.19,42.46 65.26,87.71 0.09,50.2 -23.91,79.64 -63.94,89.53 -20.32,5.02 -51.37,3.21 -73.54,3.21 -12.83,0 -25.67,0 -38.5,0 -12.29,0 -25.97,0.56 -38.03,-0.08l0.16 -184.99zm-44.36 -8.3l-0.14 400.09 199.87 0.04c77.51,0 126.32,-64.84 107.44,-132.44 -6.69,-23.95 -21.63,-43.84 -42.35,-56.64 -5.16,-3.19 -10.48,-6.05 -16.65,-8.38 -3.19,-1.21 -5.93,-2.2 -9.21,-3.28 -2.4,-0.8 -7.75,-1.59 -9.59,-2.76 0.72,-0.57 10.77,-4.19 12.45,-4.93 12.21,-5.31 22.93,-12.19 32.46,-21.52l8.32 -9.17c2.88,-3.44 4.85,-6.92 7.19,-10.84 24.09,-40.24 13.67,-99.89 -25.86,-128.24 -36.88,-26.46 -67.6,-22.3 -120.7,-22.3l-125.5 0c-4.56,0 -14.27,-1.05 -17.73,0.37z"/>
   <path class="fil0" d="M465.84 471.51c-2.21,0.71 -6.23,7.17 -8,9.32 -24.64,29.96 -58.48,54.2 -96.3,64.71 -9.84,2.74 -19.54,4.53 -30.52,5.52 -38.98,3.5 -78.11,-14.08 -103.87,-39.2 -25.32,-24.69 -42.72,-54.13 -52.74,-90.28 -14.16,-51.09 -10.31,-103.42 9.95,-151.71 8.37,-19.95 15.01,-28.69 26.78,-44.73 2.41,-3.28 5.73,-6.51 8.38,-9.65 1.18,-1.42 3.18,-3.33 4.42,-4.55 7.89,-7.75 15.24,-13.74 24.52,-19.97 42.5,-28.54 97.22,-30.69 137.27,-4.19 23.29,15.4 38.19,39.89 38.76,68.7 0.1,5.05 -0.58,11.61 -1.61,16.42 -0.5,2.38 -1.04,4.88 -1.69,7.29 -0.52,1.93 -1.89,5.13 -1.95,6.57 4.95,1.04 13.76,-0.79 18.37,-2.15 6.04,-1.79 9.75,-4.42 13.75,-7.26 7,-4.97 13.08,-15.63 14.08,-27.85 1.03,-12.52 -3.88,-24.86 -9.32,-32.63 -11.58,-16.57 -28.49,-28.75 -46.52,-37.97 -28.61,-14.63 -74.15,-20.91 -107.1,-17.45 -91.27,9.57 -160.53,76.83 -177.03,160.48 -9.82,49.75 -0.7,95.63 22.92,138.67 9.1,16.58 24.41,35.48 37.56,46.97 24.57,21.47 48.47,36.68 80.97,45.51 11.51,3.13 22.33,5.64 35.31,6.75 36.3,3.12 76.2,-1.36 110.18,-13.92 16.74,-6.18 34.13,-15.02 48.43,-25.57 2.15,-1.58 4.7,-2.44 4.85,-5.8 0.5,-10.56 -0.84,-34 0.15,-42.03z"/>
   <path class="fil0" d="M136 666.5l732.68 -0.18 0.08 -5.48c-2.91,-1 -164.87,-0.34 -182.76,-0.34l-550.5 0c-4.15,0 -4.85,-1.18 -4.85,3 -0.01,4.25 0.97,3 5.35,3z"/>
   <path class="fil0" d="M598 850c10.39,0.02 8.26,1.77 8.26,-9 0,-13.47 0.72,-42.83 -0.15,-52.91 3.1,1.7 31.26,36.46 35.13,41.18 1.36,1.65 2.26,2.43 3.49,3.99l10.24 12.26c3.1,4 4.93,7.24 7.83,6.78 0.65,-3.82 0.2,-54.39 0.2,-62.8 0,-3.28 0.69,-17.1 -0.64,-20.14l-7.5 0.07 0.08 62.15c-2.04,-1.05 -46.23,-54.62 -52.18,-61.83 -1.29,-1.56 -1.46,-2.89 -4.7,-2.64l-0.06 82.89z"/>
   <path class="fil0" d="M174.23 777.23c13.31,-0.62 26.77,-0.77 36.46,5.05 21.22,12.73 18.83,43.64 0.29,54.71 -9.45,5.64 -23.58,6.2 -36.98,5l0.23 -64.76zm-8.51 72.56c4.81,0.88 21.53,0.36 27.29,0.19 8.95,-0.27 15.33,-2.34 21.69,-5.77 32.56,-17.57 25.45,-73.59 -22.2,-74.77 -4.9,-0.12 -23.19,-0.63 -26.94,0.24l0.16 80.11z"/>
   <path class="fil0" d="M549.27 814.73c0.35,4.27 0.04,9.4 0.11,13.8 0.05,3.84 -0.93,5.17 -5.19,8.16 -19.42,13.6 -44.63,3.95 -49.54,-18.86 -5.54,-25.67 14.68,-45.74 37.49,-40.45 10.36,2.4 12.83,7.17 16.86,9.94 1.31,-0.46 5.3,-4.04 6,-4.82 -1.84,-5.6 -16.21,-13.12 -25.98,-14.07 -13.24,-1.28 -23.22,3.82 -29.94,9.66 -14.07,12.22 -20.57,38.22 -6.13,56.94 12.34,16 35.3,22.96 55.61,8.04 12.72,-9.35 9.19,-13.45 9.21,-30.07 0.01,-5.04 1.49,-6.39 -3.22,-6.34 -4.17,0.05 -28.74,-0.69 -29.16,0.62 -0.03,0.09 -0.11,0.26 -0.15,0.38l-0.25 2.83c0.01,1.3 0.03,2.55 0.19,4l24.09 0.24z"/>
   <path class="fil0" d="M797.23 777.23c6.33,-0.3 15.37,-0.35 20.64,1.9 11.97,5.1 12.7,21.93 0.1,27.85 -5.72,2.68 -13.9,2.05 -20.98,2.01l0.24 -31.76zm20.42 38.75c1.2,-0.9 3.26,-1.31 4.77,-2.08 4.47,-2.27 8.41,-5.92 10.62,-10.35 6.71,-13.41 -0.39,-29.72 -17.73,-33.35 -3.89,-0.82 -23.03,-1.38 -26.75,-0.52l0.16 80.26 8.28 0.06 0 -33.16 11 0.16 16.86 25.16c6.46,9.51 3.02,7.84 15.14,7.84 -0.58,-2.06 -4.14,-6.68 -5.64,-8.86l-11.28 -16.71c-1.3,-1.9 -4.75,-6.67 -5.43,-8.45z"/>
   <path class="fil0" d="M348.4 836c0.81,2.64 4.63,6.25 6.31,7.8 7.87,7.19 21.49,9.61 31.25,5.16 5.78,-2.63 10.52,-7.23 12.35,-14.66 2.14,-8.67 -1.05,-16.03 -5.26,-20.36 -4.78,-4.91 -10.08,-6.79 -17.08,-9.9 -5.76,-2.55 -12.79,-6.01 -13.9,-13.11 -1.38,-8.76 4.09,-14.39 11.94,-14.83 9.1,-0.51 13.35,4.5 17.49,9.32 1.47,-0.48 5.28,-3.66 6.44,-4.92 -1.99,-4.55 -9.81,-9.93 -15.97,-11.48 -16.35,-4.1 -31.43,6.97 -28.19,24.24 3.81,20.31 31.38,17.25 36.08,31.88 3.68,11.46 -6.75,21.13 -20.17,17.68 -8.57,-2.2 -11.33,-8.25 -15.19,-11.81 -1.48,0.73 -4.82,3.65 -6.1,4.99z"/>
   <path class="fil0" d="M740 804.48c-2.83,-0.51 -15.51,-0.24 -20.01,-0.19 -6.26,0.05 -4.64,0.09 -4.97,-1.28 -0.34,-1.42 -0.13,-24.04 0.21,-25.79l32.81 -0.09c0,-1.39 0.05,-2.78 0.05,-4.16 0.01,-1.47 -0.01,-2.36 -0.74,-3.58l-40.79 0.29 0.16 80.31 41.8 -0.07c0.39,-2.26 0.53,-5.55 -0.19,-7.74l-33.33 -0.19 0.04 -29.95c4.46,0 22.23,0.69 25.22,-0.38l-0.26 -7.18z"/>
   <path class="fil0" d="M307 804.48c-3.78,-0.68 -9.45,-0.19 -13.5,-0.19 -2.17,0 -4.35,-0.02 -6.51,0 -6.26,0.05 -4.64,0.09 -4.97,-1.28 -0.34,-1.42 -0.13,-24.04 0.21,-25.79l32.81 -0.09c0,-1.39 0.05,-2.78 0.05,-4.16 0,-0.45 0,-1.55 -0.08,-1.96l-0.26 -0.84c-0.03,-0.1 -0.16,-0.17 -0.19,-0.38 -0.02,-0.21 -0.12,-0.26 -0.21,-0.4l-40.79 0.29 0.16 80.31 41.8 -0.07c0.39,-2.26 0.53,-5.55 -0.19,-7.74l-33.33 -0.19 0.04 -29.95c4.46,0 22.23,0.69 25.22,-0.38l-0.26 -7.18z"/>
   <polygon class="fil0" points="437.72,849.94 446,850 445.95,769.36 437.56,769.68 "/>
  </g>
 </g>
</svg>
