<?xml version="1.0" encoding="UTF-8"?>
<!DOCTYPE svg PUBLIC "-//W3C//DTD SVG 1.1//EN" "http://www.w3.org/Graphics/SVG/1.1/DTD/svg11.dtd">
<!-- Creator: CorelDRAW 2020 (64 Bit) -->
<svg xmlns="http://www.w3.org/2000/svg" xml:space="preserve" width="200px" height="200px" version="1.1" style="shape-rendering:geometricPrecision; text-rendering:geometricPrecision; image-rendering:optimizeQuality; fill-rule:evenodd; clip-rule:evenodd"
viewBox="0 0 200 200"
 xmlns:xlink="http://www.w3.org/1999/xlink"
 xmlns:xodm="http://www.corel.com/coreldraw/odm/2003">
 <defs>
  <style type="text/css">
   <![CDATA[
    .fil0 {fill:white}
   ]]>
  </style>
 </defs>
 <g id="Camada_x0020_1">
  <metadata id="CorelCorpID_0Corel-Layer"/>
  <g id="_2185275891856">
   <path class="fil0" d="M111.3 108.8c0,-8.01 -3.71,-39.06 3.83,-40.8 8.92,-2.07 30.8,-1.05 38.13,6.28 32.67,32.68 -25.82,34.52 -41.96,34.52zm0 -43.4l0 -39.68c64.41,0 67.45,39.68 0,39.68zm-9.92 44.64c0.07,0.12 64.06,10.91 68.07,-16.3 3.13,-21.3 -14,-25.37 -13.39,-27.83 0.52,-2.1 18.2,-9.7 10.63,-28.61 -8.65,-21.63 -64.78,-14.78 -65.91,-12.21 -2.26,5.18 -1.35,83.35 0.6,84.95z"/>
   <path class="fil0" d="M92.7 102.6l0 -9.92c-14.14,8.08 -23.72,25.17 -46.27,12.18 -14.39,-8.29 -22.41,-30.69 -18.42,-46.48 11.51,-45.43 49.89,-35 54.04,-19.52 2.84,10.61 11.16,29.64 10.74,3.17 -0.41,-26.36 -71.67,-29.33 -75.7,20.37 -3.62,44.55 38.89,58.75 75.61,40.2z"/>
   <polygon class="fil0" points="19.54,134.84 179.5,134.84 181.98,134.84 181.98,133.6 179.5,133.6 20.78,133.6 19.54,133.6 "/>
   <path class="fil0" d="M39.58 159.84c0.44,-0.06 6.7,1.32 7.27,1.63 4.65,4.91 2.48,11.89 -4.39,11.92 -5.9,0.03 -3.25,-2.73 -3.57,-4.65 -0.4,-2.38 0.19,-6.19 0.69,-8.9zm-2.68 -2.06c-1.73,1.2 -1.83,14.46 -1.14,16.64 1.32,4.21 10.31,1.52 12.78,-0.04 4.1,-2.58 4.16,-9.11 1.6,-13.1 -2.03,-3.14 -9.94,-5.77 -13.24,-3.5z"/>
   <path class="fil0" d="M115.08 166.93c1.18,1.93 3.25,0.39 5.09,3.18 -1.22,6.06 -11.49,3.79 -11.45,-3.68 0.02,-3.08 1.87,-4.98 4.63,-6.11 4.5,-1.86 3.52,2.84 7.51,1.14 2.7,-8.92 -22.26,-3.19 -12.92,11.48 2.4,3.77 8.71,4.31 12.36,1.94 4.92,-3.2 2.36,-13.76 -5.22,-7.95z"/>
   <path class="fil0" d="M132.38 175.72c2.81,-2.06 0.34,-7.69 1.62,-11.78 1.78,0.56 9.06,11.59 11.13,11.67 1.38,-1.81 1.94,-17.11 -0.91,-18.09 -2.03,2.87 0.14,7.94 -1.06,11.46 -3.4,0.36 -7.46,-10.76 -11.74,-11.18 -0.7,2.37 -1.06,16.45 0.96,17.92z"/>
   <path class="fil0" d="M59.31 175.05c2.86,1.67 8.7,3.43 10.78,-0.24 -2.32,-2.89 -3.48,-0.87 -6.79,-1.79 -2.47,-7.22 2.96,-2.8 4.29,-6.56 -1.39,-3.9 -4.02,0.76 -4.88,-4.29 2.75,-3.43 5.88,1.14 6.36,-4.28 -2.12,-1.48 -9.53,-2.17 -9.91,2.93 -0.17,2.23 -0.15,12.33 0.15,14.23z"/>
   <path class="fil0" d="M85.2 172.4c-4.46,3.41 -6.18,-1.01 -8.27,-1.1 -1.93,5.89 9.42,7.33 10.78,1.86 2.22,-8.89 -10.82,-6.99 -6.36,-12.96 3.42,-0.71 3.01,3.26 5.89,0.76 0.33,-4.76 -9.27,-4.68 -10.37,0.72 -1.28,6.27 9.1,5.05 8.33,10.72z"/>
   <path class="fil0" d="M153.49 173.19c1.58,3.38 8.52,4.96 10.77,1.07 2.02,-7.02 -1.51,-6.58 -5.31,-9.61 -1.51,-1.21 -2.8,-3.66 -0.24,-4.66 2.67,-1.04 2.68,2.65 5.74,0.13 -0.75,-6.52 -15.05,-1.47 -8.28,6.13 1.74,1.96 7.06,2.25 5.97,5.69 -1.55,4.87 -5.94,-2.49 -8.65,1.25z"/>
   <path class="fil0" d="M98.3 175.81c1.38,-2.33 0.59,-7.01 0.6,-9.97 0.01,-4.33 1.05,-5.78 -1.86,-8.71 -1.18,2.17 -3.37,14.11 -0.69,17.46 1.13,1.41 -1.33,0.74 1.95,1.22z"/>
  </g>
 </g>
</svg>
