<svg id="visual" viewBox="0 0 900 450" width="900" height="450" xmlns="http://www.w3.org/2000/svg" xmlns:xlink="http://www.w3.org/1999/xlink" version="1.1"><path d="M0 152L30 139.7C60 127.3 120 102.7 180 97.2C240 91.7 300 105.3 360 119.8C420 134.3 480 149.7 540 150.2C600 150.7 660 136.3 720 129.5C780 122.7 840 123.3 870 123.7L900 124L900 0L870 0C840 0 780 0 720 0C660 0 600 0 540 0C480 0 420 0 360 0C300 0 240 0 180 0C120 0 60 0 30 0L0 0Z" fill="#b28f0e" stroke-linecap="round" stroke-linejoin="miter"></path></svg>