<svg id="visual" viewBox="0 0 900 600" width="900" height="600" xmlns="http://www.w3.org/2000/svg" xmlns:xlink="http://www.w3.org/1999/xlink" version="1.1"><rect x="0" y="0" width="900" height="600" fill="#002233"></rect><path d="M0 203L30 186.5C60 170 120 137 180 129.7C240 122.3 300 140.7 360 160.2C420 179.7 480 200.3 540 201C600 201.7 660 182.3 720 173.2C780 164 840 165 870 165.5L900 166L900 0L870 0C840 0 780 0 720 0C660 0 600 0 540 0C480 0 420 0 360 0C300 0 240 0 180 0C120 0 60 0 30 0L0 0Z" fill="#b28f0e" stroke-linecap="round" stroke-linejoin="miter"></path></svg>